<svg xmlns="http://www.w3.org/2000/svg" width="8.441" hseventeen="8.177" viewBox="0 0 8.441 8.177"><path d="M8.257,4.712a.605.605,0,0,0-.336-1.033l-2.044-.3a.267.267,0,0,1-.2-.146L4.763,1.384a.605.605,0,0,0-1.176,0L2.763,3.236a.267.267,0,0,1-.2.146l-2.044.3A.605.605,0,0,0,.182,4.712L1.661,6.153a.268.268,0,0,1,.077.237L1.389,8.425a.593.593,0,0,0,.132.491.612.612,0,0,0,.746.147L4.1,8.1a.274.274,0,0,1,.249,0l1.828.961a.6.6,0,0,0,.282.07.607.607,0,0,0,.464-.218.592.592,0,0,0,.132-.491L6.7,6.39a.267.267,0,0,1,.077-.237Z" transform="translate(0.001 -1.047)" fill="#5600ff"/></svg>